<?xml version="1.0" encoding="UTF-8"?>
<svg width="28px" height="28px" viewBox="0 0 28 28" version="1.1" xmlns="http://www.w3.org/2000/svg" xmlns:xlink="http://www.w3.org/1999/xlink">
    <!-- Generator: Sketch 50.2 (55047) - http://www.bohemiancoding.com/sketch -->
    <title>Artboard</title>
    <desc>Created with Sketch.</desc>
    <defs></defs>
    <g id="Artboard" stroke="none" stroke-width="1" fill="none" fill-rule="evenodd">
        <g id="Group" transform="translate(4.000000, 0.000000)" fill="#2294ED">
            <path d="M7.91224863,9.19815668 C7.91224863,8.52995392 8.50091408,8 9.24314442,8 C9.98537477,8 10.5740402,8.52995392 10.5740402,9.19815668 L10.5740402,9.52073733 C11.9561243,9.70506912 13.1846435,10.0737327 14.285192,10.6267281 C14.7714808,10.8801843 15.2065814,11.3179724 15.2065814,12.0092166 C15.2065814,12.8847926 14.4387569,13.5529954 13.4661792,13.5529954 C13.1590494,13.5529954 12.8519196,13.483871 12.5703839,13.3456221 C11.8537477,13 11.1371115,12.7235023 10.4460695,12.562212 L10.4460695,16.0645161 C14.3363803,17.0092166 16,18.437788 16,21.0184332 C16,23.5990783 13.7989031,25.2580645 10.5740402,25.5806452 L10.5740402,26.8018433 C10.5740402,27.4700461 9.98537477,28 9.24314442,28 C8.50091408,28 7.91224863,27.4700461 7.91224863,26.8018433 L7.91224863,25.5576037 C6.09506399,25.3502304 4.38025594,24.7741935 2.8702011,23.9447005 C2.33272395,23.6451613 2,23.1843318 2,22.562212 C2,21.6635945 2.7678245,20.9953917 3.76599634,20.9953917 C4.09872029,20.9953917 4.45703839,21.1105991 4.76416819,21.2949309 C5.83912249,21.9170507 6.86288848,22.3548387 8.04021938,22.5852535 L8.04021938,18.921659 C4.35466179,18.0230415 2.53747715,16.7557604 2.53747715,14.0138249 C2.53747715,11.4792627 4.68738574,9.77419355 7.91224863,9.47465438 L7.91224863,9.19815668 Z M12.2632541,21.202765 C12.2632541,20.4423963 11.8281536,19.9354839 10.4460695,19.4976959 L10.4460695,22.7004608 C11.6489945,22.5391705 12.2632541,22.0322581 12.2632541,21.202765 Z M6.27422303,13.8064516 C6.27422303,14.5207373 6.63254113,15.0046083 8.04021938,15.4654378 L8.04021938,12.3548387 C6.81170018,12.516129 6.27422303,13.0691244 6.27422303,13.8064516 Z" id="$"></path>
            <rect id="Rectangle" x="8" y="0" width="2" height="6" rx="1"></rect>
            <rect id="Rectangle-Copy" transform="translate(15.000000, 5.000000) rotate(40.000000) translate(-15.000000, -5.000000) " x="14" y="2" width="2" height="6" rx="1"></rect>
            <rect id="Rectangle-Copy-2" transform="translate(3.000000, 5.000000) rotate(-40.000000) translate(-3.000000, -5.000000) " x="2" y="2" width="2" height="6" rx="1"></rect>
        </g>
    </g>
</svg>