<?xml version="1.0" encoding="UTF-8"?>
<svg width="24px" height="28px" viewBox="0 0 24 28" version="1.1" xmlns="http://www.w3.org/2000/svg" xmlns:xlink="http://www.w3.org/1999/xlink">
    <!-- Generator: Sketch 50.2 (55047) - http://www.bohemiancoding.com/sketch -->
    <title>PayPal</title>
    <desc>Created with Sketch.</desc>
    <defs></defs>
    <g id="Page-1" stroke="none" stroke-width="1" fill="none" fill-rule="evenodd">
        <g id="PayPal">
            <path d="M9.85913086,3.14038086 L5.30004883,11.7844238 L6.24121094,24.7016602 L14.3044434,18.8676758 C19.4515788,12.422526 22.0251465,9.19995117 22.0251465,9.19995117 C22.0251465,9.19995117 21.8715007,8.50048828 21.564209,7.1015625 L9.85913086,3.14038086 Z" id="Path-2" fill="#2294ED"></path>
            <path d="M21.6263261,7.09043928 C21.6000392,7.25671255 21.569997,7.42670143 21.5361995,7.60133481 C20.3748815,13.5007848 16.4018031,15.5221782 11.327491,15.5221782 L8.7438635,15.5221782 C8.12330471,15.5221782 7.600383,15.9144112 7.50368473,16.5200546 L6.18088996,24.8909685 L5.80630153,27.2438746 C5.74340071,27.6414442 6.0532107,28 6.45878014,28 L11.0411515,28 C11.5837884,28 12.0447481,27.6098616 12.1301805,27.080388 L12.1752438,26.8500206 L13.0380177,21.4326702 L13.093408,21.1354219 C13.1779016,20.6040905 13.6398001,20.2139521 14.182437,20.2139521 L14.8677743,20.2139521 C19.3074453,20.2139521 22.78295,18.4304623 23.7987513,13.2694885 C24.2230971,11.1135094 24.0034136,9.31329929 22.8805871,8.04720727 C22.540735,7.66542897 22.1192056,7.34867374 21.6263261,7.09043928 Z" id="Shape" fill="#2294ED" fill-rule="nonzero"></path>
            <path d="M20.4485071,6.6324854 C20.2705365,6.58197458 20.0869161,6.53605565 19.8985875,6.49472861 C19.7093172,6.45431995 19.5153387,6.41850318 19.3157104,6.38727831 C18.6170112,6.27707287 17.8514553,6.22472529 17.0312842,6.22472529 L10.1083239,6.22472529 C9.93788646,6.22472529 9.77592384,6.26237881 9.6309108,6.33033883 C9.31169378,6.48003455 9.05878256,6.84468245 9.00134233,7.20560525 L7.52861247,16.303064 L7.48623853,16.5684755 C7.58322777,15.9696926 8.107723,15.5288708 8.73014911,15.5288708 L11.321551,15.5288708 C16.4111321,15.5288708 20.3961659,13.5130297 21.5609784,7.68132538 C21.5958192,7.5086702 21.6406273,7.27075856 21.6669933,7.10636878 C21.372259,6.95391793 21.053042,6.82350816 20.7093422,6.71238435 C20.6245943,6.68483299 20.5370215,6.65820001 20.4485071,6.6324854 Z" id="Shape" fill="#0066B5" fill-rule="nonzero"></path>
            <path d="M9.03635938,7.14290559 C9.09371291,6.77939835 9.33064879,6.48248785 9.64938397,6.33264517 C9.79511834,6.26419852 9.95589626,6.22627537 10.1260764,6.22627537 L17.0385868,6.22627537 C17.8575199,6.22627537 18.6219202,6.2789978 19.3195647,6.38999237 C19.5188917,6.42144084 19.7125774,6.45751407 19.901562,6.49821209 C20.0896064,6.53983505 20.2729496,6.58608279 20.4506515,6.63695531 C20.5390324,6.66285404 20.626473,6.68967773 20.7120332,6.71650142 C21.0552141,6.82842095 21.3739493,6.96068949 21.6682387,7.11330703 C22.0142403,4.9424381 21.6683401,3.44268179 20.4751987,2.10427219 C19.1598284,0.630819178 16.7857685,0 13.747912,0 L4.92863194,0 C4.30808558,0 3.77874073,0.443978307 3.68283811,1.0479738 L0.00939170946,23.9544796 C-0.0630053658,24.4077074 0.292398458,24.8165375 0.756868006,24.8165375 L6.2016922,24.8165375 L7.56877463,16.2838294 L9.03635938,7.14290559 Z" id="Shape" fill="#2294ED" fill-rule="nonzero"></path>
        </g>
    </g>
</svg>